<?xml version="1.0" encoding="utf-8"?>
<svg version="1.1" id="Layer_1" xmlns="http://www.w3.org/2000/svg" xmlns:xlink="http://www.w3.org/1999/xlink" x="0px" y="0px"
	 viewBox="0 0 169 96.5" style="enable-background:new 0 0 169 96.5;" xml:space="preserve">
<style type="text/css">
	.st0{fill:#AAA6A0;}
</style>
<g>
	<path class="st0" d="M80.7,52.2c1.3,0.8,2.9,0.4,3.7-0.9c0.8-1.3,0.3-2.9-0.9-3.7c-1.3-0.8-2.9-0.3-3.7,0.9
		C79,49.8,79.4,51.5,80.7,52.2z"/>
	<path class="st0" d="M78.8,47.4c0.7-1.2,0.3-2.7-0.9-3.4c-1.2-0.7-2.7-0.3-3.4,0.8c-0.7,1.2-0.3,2.7,0.9,3.4
		C76.5,48.9,78.1,48.5,78.8,47.4z"/>
	<path class="st0" d="M70.1,40c-0.7,1.1-0.3,2.5,0.8,3.2c1.1,0.7,2.6,0.3,3.2-0.8c0.7-1.1,0.3-2.6-0.8-3.2
		C72.2,38.5,70.8,38.9,70.1,40z"/>
	<path class="st0" d="M95.7,52.7c-1.1-0.7-2.5-0.3-3.2,0.8c-0.6,1.1-0.3,2.5,0.8,3.2c1.1,0.7,2.5,0.3,3.2-0.8
		C97.2,54.8,96.8,53.3,95.7,52.7z"/>
	<path class="st0" d="M71.2,36.9c0.6-1,0.3-2.3-0.7-2.9c-1-0.6-2.3-0.3-2.9,0.7c-0.6,1-0.3,2.3,0.7,2.9
		C69.3,38.3,70.6,37.9,71.2,36.9z"/>
	<path class="st0" d="M70.1,32.1c0.6,0.4,1.4,0.2,1.7-0.4c0.4-0.6,0.2-1.4-0.4-1.8c-0.6-0.4-1.4-0.2-1.8,0.4
		C69.3,31,69.5,31.8,70.1,32.1z"/>
	<path class="st0" d="M80.7,30.7c0.2,0.1,0.5,0.1,0.7-0.2c0.1-0.2,0.1-0.5-0.2-0.7c-0.2-0.1-0.5-0.1-0.7,0.2
		C80.4,30.2,80.5,30.5,80.7,30.7z"/>
	<path class="st0" d="M99.8,42.2c0.2,0.1,0.5,0.1,0.7-0.2c0.1-0.2,0.1-0.5-0.2-0.7c-0.2-0.1-0.5-0.1-0.7,0.2
		C99.5,41.8,99.6,42.1,99.8,42.2z"/>
	<path class="st0" d="M86.2,32.5c0.2,0.1,0.5,0.1,0.7-0.2c0.1-0.2,0.1-0.5-0.2-0.7c-0.2-0.1-0.5-0.1-0.7,0.2
		C86,32.1,86,32.4,86.2,32.5z"/>
	<path class="st0" d="M88.9,33.2c-0.1,0.2-0.1,0.5,0.2,0.7c0.2,0.1,0.5,0.1,0.7-0.2c0.1-0.2,0.1-0.5-0.2-0.7
		C89.3,32.9,89,32.9,88.9,33.2z"/>
	<path class="st0" d="M98.2,39.2c-0.2-0.2-0.5-0.1-0.7,0.2c-0.1,0.2-0.1,0.5,0.2,0.7c0.2,0.1,0.5,0.1,0.7-0.2
		C98.5,39.6,98.5,39.3,98.2,39.2z"/>
	<path class="st0" d="M83.4,30.9c-0.2,0.2-0.1,0.5,0.2,0.7c0.2,0.1,0.5,0.1,0.7-0.2c0.1-0.2,0.1-0.5-0.2-0.7
		C83.9,30.6,83.6,30.6,83.4,30.9z"/>
	<path class="st0" d="M102.6,44.3c-0.2-0.2-0.5-0.1-0.7,0.2c-0.1,0.2-0.1,0.5,0.2,0.7c0.2,0.1,0.5,0.1,0.7-0.2
		C103,44.7,102.9,44.4,102.6,44.3z"/>
	<path class="st0" d="M77.4,30.3c0.2,0.1,0.5,0.1,0.7-0.2c0.1-0.2,0.1-0.5-0.2-0.7c-0.2-0.1-0.5-0.1-0.7,0.2
		C77.1,29.9,77.2,30.2,77.4,30.3z"/>
	<path class="st0" d="M103.6,48c0.3,0.2,0.8,0.1,1-0.2c0.2-0.3,0.1-0.8-0.3-1c-0.3-0.2-0.8-0.1-1,0.3
		C103.2,47.4,103.3,47.8,103.6,48z"/>
	<path class="st0" d="M74.2,30.4c0.3,0.2,0.8,0.1,1-0.2c0.2-0.3,0.1-0.8-0.3-1c-0.3-0.2-0.8-0.1-1,0.2
		C73.8,29.8,73.9,30.2,74.2,30.4z"/>
	<path class="st0" d="M104.6,49.9c-0.6-0.4-1.4-0.2-1.8,0.4c-0.3,0.6-0.2,1.4,0.4,1.8c0.6,0.4,1.4,0.2,1.8-0.4
		C105.4,51.1,105.2,50.3,104.6,49.9z"/>
	<path class="st0" d="M101.6,52.8c-1-0.6-2.3-0.3-2.9,0.7c-0.6,1-0.3,2.3,0.7,2.9c1,0.6,2.3,0.3,2.9-0.7
		C102.9,54.7,102.6,53.4,101.6,52.8z"/>
	<path class="st0" d="M89.6,49.9c-1.6-0.8-3.5-0.2-4.3,1.3c-0.8,1.6-0.2,3.5,1.3,4.3c1.6,0.8,3.5,0.2,4.3-1.3
		C91.7,52.7,91.1,50.7,89.6,49.9z"/>
	<path class="st0" d="M88.6,43.9c-0.8,1.5-0.2,3.3,1.2,4c1.5,0.8,3.3,0.2,4.1-1.3c0.8-1.5,0.2-3.3-1.3-4.1
		C91.2,41.9,89.4,42.5,88.6,43.9z"/>
	<path class="st0" d="M85.2,56.8c-1.4-0.8-3.3-0.2-4.1,1.3c-0.8,1.5-0.2,3.3,1.3,4.1c1.5,0.8,3.3,0.2,4.1-1.3
		C87.2,59.4,86.7,57.6,85.2,56.8z"/>
	<path class="st0" d="M79.6,62.7c-1.4-0.7-3.1-0.2-3.8,1.2c-0.7,1.4-0.2,3.1,1.2,3.8c1.4,0.7,3.1,0.2,3.8-1.2
		C81.5,65.1,81,63.4,79.6,62.7z"/>
	<path class="st0" d="M95.4,38.9c0.7-1.4,0.2-3.1-1.2-3.8c-1.4-0.7-3.1-0.2-3.8,1.2c-0.7,1.4-0.2,3.1,1.2,3.8
		C93,40.8,94.7,40.3,95.4,38.9z"/>
	<path class="st0" d="M73.3,66.6c-1.2-0.6-2.8-0.2-3.4,1.1c-0.7,1.2-0.2,2.7,1,3.4c1.2,0.6,2.8,0.2,3.4-1.1
		C75,68.7,74.5,67.2,73.3,66.6z"/>
	<path class="st0" d="M67,66.1c-0.7-0.4-1.7-0.1-2.1,0.6c-0.4,0.7-0.1,1.7,0.6,2.1c0.7,0.4,1.7,0.1,2.1-0.6
		C68,67.4,67.7,66.5,67,66.1z"/>
	<path class="st0" d="M64.4,55.9c0.3,0.2,0.6,0.1,0.8-0.2c0.2-0.3,0-0.6-0.2-0.8c-0.3-0.2-0.6,0-0.8,0.2
		C64,55.4,64.1,55.7,64.4,55.9z"/>
	<path class="st0" d="M66.2,49.1c0.3,0.1,0.6,0,0.8-0.2c0.2-0.3,0.1-0.6-0.2-0.8c-0.3-0.1-0.6,0-0.8,0.2
		C65.8,48.6,65.9,49,66.2,49.1z"/>
	<path class="st0" d="M68.2,44.7c-0.3-0.1-0.6,0-0.8,0.2c-0.2,0.3,0,0.6,0.2,0.8c0.3,0.1,0.6,0,0.8-0.2
		C68.6,45.2,68.5,44.8,68.2,44.7z"/>
	<path class="st0" d="M65.2,52.4c0.3,0.2,0.6,0,0.8-0.2c0.1-0.3,0-0.6-0.2-0.8c-0.3-0.1-0.6,0-0.8,0.2C64.8,51.9,65,52.2,65.2,52.4z
		"/>
	<path class="st0" d="M64.2,59.8c0.3,0.2,0.6,0,0.8-0.2c0.2-0.3,0-0.6-0.2-0.8c-0.3-0.1-0.6,0-0.8,0.2
		C63.8,59.3,63.9,59.7,64.2,59.8z"/>
	<path class="st0" d="M83.2,27.5c0.4,0.2,0.9,0.1,1.2-0.3c0.2-0.4,0.1-0.9-0.4-1.2c-0.4-0.2-0.9-0.1-1.2,0.4
		C82.6,26.8,82.8,27.3,83.2,27.5z"/>
	<path class="st0" d="M65.3,63.3c0.2-0.4,0.1-0.9-0.4-1.2c-0.4-0.2-0.9,0-1.2,0.4c-0.2,0.4-0.1,0.9,0.4,1.2
		C64.5,63.9,65.1,63.8,65.3,63.3z"/>
	<path class="st0" d="M87.2,27.9c0.7,0.4,1.7,0.1,2.1-0.6c0.4-0.7,0.1-1.7-0.6-2.1c-0.8-0.4-1.7-0.1-2.1,0.6
		C86.2,26.6,86.5,27.5,87.2,27.9z"/>
	<path class="st0" d="M91.2,32.7c1.2,0.6,2.8,0.2,3.4-1.1c0.7-1.2,0.2-2.7-1-3.4c-1.2-0.6-2.7-0.2-3.4,1C89.5,30.5,90,32,91.2,32.7z
		"/>
</g>
</svg>
